Coordinates
version=1
nRows=7
nColumns=40
inDegrees=yes

Units are S.I. units (second, meters, Newtons, ...)
If the header above contains a line with 'inDegrees', this indicates whether rotational values are in degrees (yes) or radians (no).

endheader
time	pelvis_tilt	pelvis_list	pelvis_rotation	pelvis_tx	pelvis_ty	pelvis_tz	hip_flexion_r	hip_adduction_r	hip_rotation_r	knee_angle_r	knee_angle_r_beta	ankle_angle_r	subtalar_angle_r	mtp_angle_r	hip_flexion_l	hip_adduction_l	hip_rotation_l	knee_angle_l	knee_angle_l_beta	ankle_angle_l	subtalar_angle_l	mtp_angle_l	lumbar_extension	lumbar_bending	lumbar_rotation	arm_flex_r	arm_add_r	arm_rot_r	elbow_flex_r	pro_sup_r	wrist_flex_r	wrist_dev_r	arm_flex_l	arm_add_l	arm_rot_l	elbow_flex_l	pro_sup_l	wrist_flex_l	wrist_dev_l
      8.52999999999999936051	     30.73133782097627886287	      1.62315079747132018362	   -173.50947048556434992861	      0.40225893593361861100	      0.76231801746922212004	     -0.55901030787374539344	     90.49072192370226730418	    -19.29372213265415325623	     -2.77435504278582278914	     72.54153841396264112973	      1.26608868978559341301	     14.07236508197430779887	      0.00000000000000000000	      0.00000000000000000000	     90.22048745224206811599	     -2.47170253254357241701	      0.06929498732908973002	     73.07387085607635412998	      1.27537964361565991922	     11.78483420709244633429	      0.00000000000000000000	      0.00000000000000000000	    -49.57730522270288275877	      7.72268271528760319455	      0.23723409741071690982	     64.62911371175491126451	    -17.22923981460542108834	     32.24349390834637318903	     19.87827230640627362845	     89.02646149782830775621	      0.00000000000000000000	      0.00000000000000000000	     68.50265860642110737899	    -11.01712953169706388223	     56.68435793333963346186	     20.79465781151396086557	     86.06114781342350283921	      0.00000000000000000000	      0.00000000000000000000
      8.53500000000000014211	     30.77080980527162523686	      1.64406586898130080421	   -173.51620990609669092919	      0.40211393317348936849	      0.76246011218877196569	     -0.55897481199609055924	     90.49118189123332456347	    -19.27451109734328937861	     -2.78689515211788085836	     72.50019877005385637858	      1.26536717688778299618	     14.03696214199892899899	      0.00000000000000000000	      0.00000000000000000000	     90.23435471790156725547	     -2.47296420269756200838	      0.09171811094344366200	     73.04193662296827938007	      1.27482228610382453127	     11.77964569007273532009	      0.00000000000000000000	      0.00000000000000000000	    -49.52917183037617832042	      7.73786040584974443846	      0.24173421140044368260	     64.65234799885749339410	    -17.20226263297175250955	     32.35997047685417982166	     19.80730180681446839230	     89.02468622141448406637	      0.00000000000000000000	      0.00000000000000000000	     68.53130614102086326511	    -11.05925374654901638394	     57.04245853534771271143	     20.80418467877746024897	     86.00046761003223139141	      0.00000000000000000000	      0.00000000000000000000
      8.53999999999999914735	     30.60960004442500093091	      2.16172556186649034160	   -172.96189322835851953641	      0.40171535994254753410	      0.76326546490638458309	     -0.55756641912360316304	     89.97024037402850638045	    -19.90631019198109896706	     -3.54769599173868099840	     72.41551756623275082347	      1.26388921106655249815	     14.44549168176143005837	      0.00000000000000000000	      0.00000000000000000000	     90.09656600105654433719	     -1.85198495157077647200	      0.74090524851836092601	     72.91385560186455450093	      1.27258685057624809644	     12.08478450925663416626	      0.00000000000000000000	      0.00000000000000000000	    -49.68060715732634236019	      8.64346755139499478560	      0.27930227163482124197	     64.87117891072283271114	    -17.00395214237813235059	     31.87809880342601331904	     19.39028189732345808238	     89.10437622374222144117	      0.00000000000000000000	      0.00000000000000000000	     67.71353451844470328069	    -10.70335267761776343320	     52.96902150259029440349	     21.09791163574685057824	     81.85695802047123947887	      0.00000000000000000000	      0.00000000000000000000
      8.54499999999999992895	     30.84172573109027837290	      1.66223754894315534081	   -173.61390389256126809414	      0.40182088990878472856	      0.76276574451763479168	     -0.55902799143432657658	     90.51158091198061583782	    -19.15754545150544885246	     -2.79337465263893358625	     72.45723138811375463320	      1.26461725460196650062	     13.94363779857637730686	      0.00000000000000000000	      0.00000000000000000000	     90.25115981183074609362	     -2.56218036286321781958	      0.10888522306629151715	     72.99179261975039878507	      1.27394710814754197337	     11.76765266535593035258	      0.00000000000000000000	      0.00000000000000000000	    -49.45491626914628113809	      7.67881969612228942879	      0.30775655999671447383	     64.65723321525733524595	    -17.14314099421646631072	     32.29376833835870286293	     19.69902910520916705650	     89.02817628169363217694	      0.00000000000000000000	      0.00000000000000000000	     68.64647075958149002872	    -11.10386627603303644207	     57.87705072920306292872	     20.76980841421029211347	     85.79909321426082158268	      0.00000000000000000000	      0.00000000000000000000
      8.55000000000000071054	     30.90797265318007092105	      1.62853297002566210772	   -173.63264767532376708914	      0.40173330431462056511	      0.76281978485376078503	     -0.55896312909857859275	     90.57193858064245262085	    -19.13708600603196785528	     -2.73802704028634202871	     72.42495600465245786381	      1.26405394289322314805	     13.94185291258057546315	      0.00000000000000000000	      0.00000000000000000000	     90.26987594911869905445	     -2.54569477471441096839	      0.09625728040015463227	     72.93551731805392535080	      1.27296491884538531814	     11.78259749567325798125	      0.00000000000000000000	      0.00000000000000000000	    -49.37580409230926647979	      7.64640991867660346770	      0.26297194049502575774	     64.67177731341929813880	    -17.13209379468832693760	     32.51522807959027971947	     19.65499325367678551402	     89.02679356859610493302	      0.00000000000000000000	      0.00000000000000000000	     68.62404334127634797369	    -11.14747793959382882178	     57.97707808348905444973	     20.80470011013337128247	     85.73238804607056806617	      0.00000000000000000000	      0.00000000000000000000
      8.55499999999999971578	     30.96993473198430280036	      1.58561811147136721978	   -173.63752720240159987952	      0.40166143127892944831	      0.76289951993991989010	     -0.55882898656049562192	     90.63995907133300988789	    -19.14404125596937333853	     -2.67146213557888589918	     72.40872325762184402720	      1.26377062801089556920	     13.89099712612978265724	      0.00000000000000000000	      0.00000000000000000000	     90.29826378867360858749	     -2.52492163249930712254	      0.04922805640505343444	     72.89968283112024494130	      1.27233948906262961387	     11.76565941994412511917	      0.00000000000000000000	      0.00000000000000000000	    -49.30033188136931698864	      7.62282970050805541717	      0.22639674227944561746	     64.63374456328298833796	    -17.22243734312895213634	     32.79745154527275730061	     19.78825370053974452844	     89.02586711048655843115	      0.00000000000000000000	      0.00000000000000000000	     68.52789470875782740222	    -11.07178872699079263953	     57.49510876394764835595	     20.74024936199862523267	     85.77880568861250765167	      0.00000000000000000000	      0.00000000000000000000
      8.56000000000000049738	     30.95900489222521656529	      1.55311036554663006726	   -173.68073212130747151605	      0.40139351407828444129	      0.76320626197740837338	     -0.55876697647579620654	     90.59703844175722053933	    -19.11986619009794807766	     -2.65592037490179189163	     72.36935823601010042694	      1.26308357877365184940	     13.82705789138863039511	      0.00000000000000000000	      0.00000000000000000000	     90.21785317775133705709	     -2.52467479120140225746	      0.02750333998144022934	     72.81946037066036581109	      1.27093934299355382223	     11.77403818252370193420	      0.00000000000000000000	      0.00000000000000000000	    -49.31810760061493681405	      7.58316744432188993841	      0.21433132795361301004	     64.65091617617061103829	    -17.13441889440393950395	     32.60201245406539527494	     19.66934494709537517565	     89.02749198591936874436	      0.00000000000000000000	      0.00000000000000000000	     68.58934786683214213099	    -11.11006389703055496909	     57.90086999675848034030	     20.73380625272223909406	     85.78731156042981353949	      0.00000000000000000000	      0.00000000000000000000
